{"accessors" : [{"bufferView" : 0, "byteOffset" : 0, "componentType" : 5123, "count" : 33024, "type" : "SCALAR", "max" : [27303], "min" : [0]}, {"bufferView" : 1, "byteOffset" : 0, "componentType" : 5126, "count" : 27304, "type" : "VEC3", "max" : [2.2012290954589844, 2.3081018924713135, 0.8754760026931763], "min" : [-2.2012290954589844, -2.2686591148376465, -0.5685219764709473], "name" : "POSITION"}, {"bufferView" : 1, "byteOffset" : 12, "componentType" : 5126, "count" : 27304, "type" : "VEC3", "max" : [1.0000044107437134, 1.0000044107437134, 1.0000044107437134], "min" : [-1.0000044107437134, -1.0000044107437134, -1.0000044107437134], "name" : "NORMAL"}], "asset" : {"generator" : "Aspose.3D 22.12", "version" : "2.0"}, "buffers" : [{"uri" : "data:application/octet-stream;base64,", "byteLength" : 858632}], "bufferViews" : [{"buffer" : 0, "byteOffset" : 0, "byteLength" : 66048, "target" : 34963}, {"buffer" : 0, "byteOffset" : 66052, "byteLength" : 792576, "byteStride" : 24, "target" : 34962}], "meshes" : [{"primitives" : [{"attributes" : {"POSITION" : 1, "NORMAL" : 2}, "indices" : 0, "mode" : 4}], "name" : ""}], "nodes" : [{"mesh" : 0, "name" : "_stickman_Roundcube.001"}], "scene" : 0, "scenes" : [{"nodes" : [0]}]}